<svg id="visual" viewBox="0 0 900 600" width="900" height="600" xmlns="http://www.w3.org/2000/svg" xmlns:xlink="http://www.w3.org/1999/xlink" version="1.1"><rect x="0" y="0" width="900" height="600" fill="#140021"></rect><path d="M0 285L129 285L129 302L257 302L257 323L386 323L386 375L514 375L514 248L643 248L643 365L771 365L771 288L900 288L900 374L900 601L900 601L771 601L771 601L643 601L643 601L514 601L514 601L386 601L386 601L257 601L257 601L129 601L129 601L0 601Z" fill="#9900ff"></path><path d="M0 431L129 431L129 435L257 435L257 444L386 444L386 356L514 356L514 417L643 417L643 386L771 386L771 376L900 376L900 453L900 601L900 601L771 601L771 601L643 601L643 601L514 601L514 601L386 601L386 601L257 601L257 601L129 601L129 601L0 601Z" fill="#7700c6"></path><path d="M0 453L129 453L129 487L257 487L257 455L386 455L386 513L514 513L514 536L643 536L643 536L771 536L771 454L900 454L900 508L900 601L900 601L771 601L771 601L643 601L643 601L514 601L514 601L386 601L386 601L257 601L257 601L129 601L129 601L0 601Z" fill="#560090"></path></svg>