<svg id="visual" viewBox="0 0 900 600" width="900" height="600" xmlns="http://www.w3.org/2000/svg" xmlns:xlink="http://www.w3.org/1999/xlink" version="1.1"><path d="M0 103L13.7 97C27.3 91 54.7 79 82 79C109.3 79 136.7 91 163.8 93C191 95 218 87 245.2 83C272.3 79 299.7 79 327 83C354.3 87 381.7 95 409 92C436.3 89 463.7 75 491 74C518.3 73 545.7 85 573 81C600.3 77 627.7 57 654.8 61C682 65 709 93 736.2 107C763.3 121 790.7 121 818 108C845.3 95 872.7 69 886.3 56L900 43L900 0L886.3 0C872.7 0 845.3 0 818 0C790.7 0 763.3 0 736.2 0C709 0 682 0 654.8 0C627.7 0 600.3 0 573 0C545.7 0 518.3 0 491 0C463.7 0 436.3 0 409 0C381.7 0 354.3 0 327 0C299.7 0 272.3 0 245.2 0C218 0 191 0 163.8 0C136.7 0 109.3 0 82 0C54.7 0 27.3 0 13.7 0L0 0Z" fill="#6198ff"></path><path d="M0 355L13.7 331C27.3 307 54.7 259 82 244C109.3 229 136.7 247 163.8 256C191 265 218 265 245.2 286C272.3 307 299.7 349 327 337C354.3 325 381.7 259 409 218C436.3 177 463.7 161 491 170C518.3 179 545.7 213 573 216C600.3 219 627.7 191 654.8 186C682 181 709 199 736.2 219C763.3 239 790.7 261 818 261C845.3 261 872.7 239 886.3 228L900 217L900 41L886.3 54C872.7 67 845.3 93 818 106C790.7 119 763.3 119 736.2 105C709 91 682 63 654.8 59C627.7 55 600.3 75 573 79C545.7 83 518.3 71 491 72C463.7 73 436.3 87 409 90C381.7 93 354.3 85 327 81C299.7 77 272.3 77 245.2 81C218 85 191 93 163.8 91C136.7 89 109.3 77 82 77C54.7 77 27.3 89 13.7 95L0 101Z" fill="#3c80ff"></path><path d="M0 433L13.7 426C27.3 419 54.7 405 82 409C109.3 413 136.7 435 163.8 441C191 447 218 437 245.2 444C272.3 451 299.7 475 327 477C354.3 479 381.7 459 409 437C436.3 415 463.7 391 491 388C518.3 385 545.7 403 573 401C600.3 399 627.7 377 654.8 374C682 371 709 387 736.2 398C763.3 409 790.7 415 818 411C845.3 407 872.7 393 886.3 386L900 379L900 215L886.3 226C872.7 237 845.3 259 818 259C790.7 259 763.3 237 736.2 217C709 197 682 179 654.8 184C627.7 189 600.3 217 573 214C545.7 211 518.3 177 491 168C463.7 159 436.3 175 409 216C381.7 257 354.3 323 327 335C299.7 347 272.3 305 245.2 284C218 263 191 263 163.8 254C136.7 245 109.3 227 82 242C54.7 257 27.3 305 13.7 329L0 353Z" fill="#0066ff"></path><path d="M0 511L13.7 519C27.3 527 54.7 543 82 542C109.3 541 136.7 523 163.8 516C191 509 218 513 245.2 522C272.3 531 299.7 545 327 543C354.3 541 381.7 523 409 517C436.3 511 463.7 517 491 524C518.3 531 545.7 539 573 535C600.3 531 627.7 515 654.8 510C682 505 709 511 736.2 515C763.3 519 790.7 521 818 522C845.3 523 872.7 523 886.3 523L900 523L900 377L886.3 384C872.7 391 845.3 405 818 409C790.7 413 763.3 407 736.2 396C709 385 682 369 654.8 372C627.7 375 600.3 397 573 399C545.7 401 518.3 383 491 386C463.7 389 436.3 413 409 435C381.7 457 354.3 477 327 475C299.7 473 272.3 449 245.2 442C218 435 191 445 163.8 439C136.7 433 109.3 411 82 407C54.7 403 27.3 417 13.7 424L0 431Z" fill="#0059dd"></path><path d="M0 601L13.7 601C27.3 601 54.7 601 82 601C109.3 601 136.7 601 163.8 601C191 601 218 601 245.2 601C272.3 601 299.7 601 327 601C354.3 601 381.7 601 409 601C436.3 601 463.7 601 491 601C518.3 601 545.7 601 573 601C600.3 601 627.7 601 654.8 601C682 601 709 601 736.2 601C763.3 601 790.7 601 818 601C845.3 601 872.7 601 886.3 601L900 601L900 521L886.3 521C872.7 521 845.3 521 818 520C790.7 519 763.3 517 736.2 513C709 509 682 503 654.8 508C627.7 513 600.3 529 573 533C545.7 537 518.3 529 491 522C463.7 515 436.3 509 409 515C381.7 521 354.3 539 327 541C299.7 543 272.3 529 245.2 520C218 511 191 507 163.8 514C136.7 521 109.3 539 82 540C54.7 541 27.3 525 13.7 517L0 509Z" fill="#004cbb"></path></svg>